<svg width="86" height="81" viewBox="0 0 86 81" fill="none" xmlns="http://www.w3.org/2000/svg">
<path opacity="0.8" d="M51.5231 42.4991C51.2024 42.8336 50.8174 43.0999 50.3913 43.2818C49.9651 43.4636 49.5065 43.5574 49.0431 43.5574C48.5797 43.5574 48.1211 43.4636 47.6949 43.2818C47.2687 43.0999 46.8837 42.8336 46.5631 42.4991L28.5507 23.6966C26.7515 21.8976 25.564 19.5779 25.1565 17.0664C24.749 14.5548 25.1421 11.9787 26.2802 9.70302C27.1391 7.9844 28.3942 6.49455 29.9419 5.35631C31.4897 4.21807 33.2859 3.46404 35.1824 3.1564C37.0789 2.84877 39.0213 2.99633 40.8495 3.58693C42.6778 4.17753 44.3394 5.19425 45.6975 6.55325L49.0431 9.89881L52.3886 6.55325C53.7467 5.19425 55.4084 4.17753 57.2366 3.58693C59.0649 2.99633 61.0073 2.84877 62.9038 3.1564C64.8002 3.46404 66.5964 4.21807 68.1442 5.35631C69.692 6.49455 70.9471 7.9844 71.8059 9.70302C72.944 11.9787 73.3372 14.5548 72.9297 17.0664C72.5222 19.5779 71.3347 21.8976 69.5355 23.6966L51.5231 42.4991Z" fill="#FFE1E6"/>
<path d="M42.9808 40.4991C42.6602 40.8336 42.2752 41.0999 41.849 41.2818C41.4228 41.4636 40.9642 41.5574 40.5008 41.5574C40.0375 41.5574 39.5789 41.4636 39.1527 41.2818C38.7265 41.0999 38.3415 40.8336 38.0209 40.4991L20.0085 21.6966C18.2092 19.8976 17.0217 17.5779 16.6142 15.0664C16.2067 12.5548 16.5999 9.97869 17.738 7.70302C18.5969 5.9844 19.8519 4.49455 21.3997 3.35631C22.9475 2.21807 24.7437 1.46404 26.6402 1.1564C28.5366 0.848767 30.4791 0.996333 32.3073 1.58693C34.1355 2.17753 35.7972 3.19425 37.1553 4.55325L40.5008 7.89881L43.8464 4.55325C45.2045 3.19425 46.8661 2.17753 48.6944 1.58693C50.5226 0.996333 52.4651 0.848767 54.3615 1.1564C56.258 1.46404 58.0542 2.21807 59.602 3.35631C61.1498 4.49455 62.4048 5.9844 63.2637 7.70302C64.4018 9.97869 64.7949 12.5548 64.3875 15.0664C63.98 17.5779 62.7925 19.8976 60.9932 21.6966L42.9808 40.4991Z" stroke="#FF3F56" stroke-width="2" stroke-linejoin="round"/>
<path d="M73.2487 79.9997C77.6984 69.2288 79.9926 57.6897 80.0017 46.0358V31.2831C79.996 30.1402 79.5581 29.0419 78.7757 28.2087C77.9934 27.3756 76.9248 26.8695 75.7845 26.792C74.6443 26.7146 73.517 27.0716 72.6292 27.7913C71.7414 28.511 71.159 29.5401 70.9989 30.6717L66.7431 61.8843C66.6277 62.5858 66.2741 63.2261 65.7418 63.6973C65.2095 64.1685 64.531 64.4418 63.8207 64.4713C63.1104 64.5007 62.4117 64.2845 61.8422 63.8589C61.2727 63.4334 60.8673 62.8246 60.6943 62.135L58.4548 52.0709C58.2492 51.156 57.7137 50.3489 56.9506 49.804C56.1876 49.259 55.2504 49.0143 54.3183 49.1168C53.3862 49.2192 52.5246 49.6615 51.8981 50.3592C51.2715 51.0569 50.9241 51.961 50.9221 52.8987C50.9231 59.8765 51.6356 66.836 53.0483 73.6693L54.357 79.9997" stroke="#19181B" stroke-width="2" stroke-linejoin="round"/>
<path d="M7.75294 79.9997C3.3033 69.2288 1.00903 57.6897 1 46.0358V31.2831C1.00562 30.1402 1.4436 29.0419 2.22592 28.2087C3.00824 27.3756 4.07691 26.8695 5.21715 26.792C6.35738 26.7146 7.48467 27.0716 8.37245 27.7913C9.26023 28.511 9.84269 29.5401 10.0028 30.6717L14.2586 61.8843C14.3739 62.5858 14.7276 63.2261 15.2599 63.6973C15.7922 64.1685 16.4706 64.4418 17.1809 64.4713C17.8912 64.5007 18.59 64.2845 19.1594 63.8589C19.7289 63.4334 20.1343 62.8246 20.3074 62.135L22.5469 52.0709C22.7524 51.156 23.2879 50.3489 24.051 49.804C24.8141 49.259 25.7513 49.0143 26.6833 49.1168C27.6154 49.2192 28.4771 49.6615 29.1036 50.3592C29.7301 51.0569 30.0776 51.961 30.0795 52.8987C30.0785 59.8765 29.3661 66.836 27.9534 73.6693L26.6447 79.9997" stroke="#19181B" stroke-width="2" stroke-linejoin="round"/>
</svg>
