<svg width="86" height="81" viewBox="0 0 86 81" fill="none" xmlns="http://www.w3.org/2000/svg">
<g opacity="0.6">
<path d="M22.8668 14.737L28.2495 7.99113C28.7932 7.24998 29.6091 6.7552 30.5177 6.61563C30.9676 6.54652 31.4267 6.5667 31.8688 6.67502C32.3108 6.78333 32.7273 6.97766 33.0942 7.24691C33.4612 7.51616 33.7716 7.85505 34.0076 8.24424C34.2436 8.63342 34.4006 9.06529 34.4697 9.51517C34.5388 9.96505 34.5187 10.4241 34.4103 10.8662C34.302 11.3083 34.1077 11.7247 33.8385 12.0917L28.3931 20.2633L26.551 37.7635C32.1548 31.3898 47.8128 31.3898 51.4197 38.913C51.4866 36.6142 52.0114 34.352 52.9633 32.2585C53.9152 30.165 55.275 28.2824 56.9633 26.7209C58.6516 25.1593 60.6343 23.9502 62.7955 23.1642C64.9568 22.3782 67.253 22.0312 69.55 22.1434C71.847 22.2556 74.0985 22.8248 76.1728 23.8177C78.2471 24.8106 80.1026 26.2073 81.6306 27.926C83.1586 29.6446 84.3285 31.6508 85.0718 33.8271C85.8151 36.0034 86.1168 38.306 85.9594 40.6004C85.9594 76.8533 8.12981 66.449 8.12981 46.0973C7.05032 40.5893 12.9893 18.8744 15.3693 10.2017C16.0832 7.9309 17.2571 5.83148 18.8178 4.03425C19.8548 2.77264 21.1586 1.75652 22.6352 1.05896C24.1119 0.361407 25.7247 -0.000249585 27.3579 2.76648e-06H34.2327C35.6051 -0.0010978 36.9579 0.326187 38.1781 0.954526C39.3983 1.58286 40.4504 2.49402 41.2466 3.6119C42.0428 4.72978 42.56 6.02193 42.755 7.38046C42.95 8.73899 42.8171 10.1245 42.3675 11.4212L42.0912 12.2133C41.4311 14.1177 40.2629 15.8054 38.7128 17.0938C37.1627 18.3821 35.2899 19.2221 33.2969 19.5228L28.3931 20.2597" fill="#FFE1E6"/>
</g>
<path d="M15.8668 18.737L21.2495 11.9911C21.7932 11.25 22.6091 10.7552 23.5177 10.6156C23.9676 10.5465 24.4267 10.5667 24.8688 10.675C25.3108 10.7833 25.7273 10.9777 26.0942 11.2469C26.4612 11.5162 26.7716 11.855 27.0076 12.2442C27.2436 12.6334 27.4006 13.0653 27.4697 13.5152C27.5388 13.965 27.5187 14.4241 27.4103 14.8662C27.302 15.3083 27.1077 15.7247 26.8385 16.0917L21.3931 24.2633L19.551 41.7635C25.1548 35.3898 40.8128 35.3898 44.4197 42.913C44.4866 40.6142 45.0114 38.352 45.9633 36.2585C46.9152 34.165 48.275 32.2824 49.9633 30.7209C51.6516 29.1593 53.6343 27.9502 55.7955 27.1642C57.9568 26.3782 60.253 26.0312 62.55 26.1434C64.847 26.2556 67.0985 26.8248 69.1728 27.8177C71.2471 28.8106 73.1026 30.2073 74.6306 31.926C76.1586 33.6446 77.3285 35.6508 78.0718 37.8271C78.8151 40.0034 79.1168 42.306 78.9594 44.6004C78.9594 80.8533 1.12981 70.449 1.12981 50.0973C0.0503249 44.5893 5.98932 22.8744 8.36935 14.2017C9.08319 11.9309 10.2571 9.83148 11.8178 8.03425C12.8548 6.77264 14.1586 5.75652 15.6352 5.05896C17.1119 4.36141 18.7247 3.99975 20.3579 4H27.2327C28.6051 3.9989 29.9579 4.32619 31.1781 4.95453C32.3983 5.58286 33.4504 6.49402 34.2466 7.6119C35.0428 8.72978 35.56 10.0219 35.755 11.3805C35.95 12.739 35.8171 14.1245 35.3675 15.4212L35.0912 16.2133C34.4311 18.1177 33.2629 19.8054 31.7128 21.0938C30.1627 22.3821 28.2899 23.2221 26.2969 23.5228L21.3931 24.2597" stroke="#19181B" stroke-width="2" stroke-linecap="round" stroke-linejoin="round"/>
</svg>
