<svg width="86" height="81" viewBox="0 0 86 81" fill="none" xmlns="http://www.w3.org/2000/svg">
<path opacity="0.8" d="M67 42.5853C67 50.4092 63.892 57.9126 58.3597 63.445C52.8273 68.9773 45.3239 72.0853 37.5 72.0853C29.6761 72.0853 22.1727 68.9773 16.6404 63.445C11.108 57.9126 8.00001 50.4092 8.00001 42.5853C7.99618 38.7048 8.76958 34.8629 10.2746 31.2862C11.7796 27.7094 13.9857 24.4703 16.7628 21.76C16.9482 21.5774 17.1766 21.4443 17.4269 21.373C17.6772 21.3017 17.9414 21.2945 18.1952 21.3519C18.449 21.4094 18.6843 21.5298 18.8795 21.702C19.0746 21.8741 19.2234 22.0926 19.312 22.3373C20.5117 25.4195 22.2322 28.2726 24.3984 30.7719C26.6748 26.7408 27.964 22.2278 28.1605 17.6025C28.357 12.9772 27.4551 8.37113 25.5286 4.16149C25.4054 3.89734 25.3608 3.60331 25.4001 3.31449C25.4393 3.02566 25.5609 2.75423 25.7502 2.53258C25.9395 2.31093 26.1885 2.14842 26.4677 2.06443C26.7468 1.98044 27.0442 1.97853 27.3243 2.05891C48.2894 7.26675 57.4047 27.6819 56.1012 39.5317C58.9264 38.6289 61.5922 37.2878 64.0011 35.5575C64.2121 35.4172 64.4545 35.3313 64.7068 35.3073C64.959 35.2834 65.2132 35.3222 65.4469 35.4202C65.6805 35.5182 65.8863 35.6725 66.046 35.8692C66.2056 36.066 66.3142 36.2991 66.3619 36.548C66.7867 38.5323 67.0006 40.556 67 42.5853V42.5853Z" fill="#FFE1E6"/>
<path d="M30.5 44.7632C27.8201 36.5322 18.3463 39.0054 18.3463 46.3949C18.3463 52.4717 28.7468 60.4658 30.5 61.7723C32.2531 60.4658 42.6537 52.4687 42.6537 46.3949C42.6537 39.0115 33.1799 36.5383 30.5 44.7632Z" stroke="#FF3F56" stroke-width="2" stroke-linecap="round" stroke-linejoin="round"/>
<path d="M60 41.5853C60 49.4092 56.892 56.9126 51.3597 62.445C45.8273 67.9773 38.3239 71.0853 30.5 71.0853C22.6761 71.0853 15.1727 67.9773 9.64036 62.445C4.10804 56.9126 1.00001 49.4092 1.00001 41.5853C0.996177 37.7048 1.76958 33.8629 3.27458 30.2862C4.77959 26.7094 6.98572 23.4703 9.76281 20.76C9.94824 20.5774 10.1766 20.4443 10.4269 20.373C10.6772 20.3017 10.9414 20.2945 11.1952 20.3519C11.449 20.4094 11.6843 20.5298 11.8795 20.702C12.0746 20.8741 12.2234 21.0926 12.312 21.3373C13.5117 24.4195 15.2322 27.2726 17.3984 29.7719C19.6748 25.7408 20.964 21.2278 21.1605 16.6025C21.357 11.9772 20.4551 7.37113 18.5286 3.16149C18.4054 2.89734 18.3608 2.60331 18.4001 2.31449C18.4393 2.02566 18.5609 1.75423 18.7502 1.53258C18.9395 1.31093 19.1885 1.14842 19.4677 1.06443C19.7468 0.980445 20.0442 0.978526 20.3243 1.05891C41.2894 6.26675 50.4047 26.6819 49.1012 38.5317C51.9264 37.6289 54.5922 36.2878 57.0011 34.5575C57.2121 34.4172 57.4545 34.3313 57.7068 34.3073C57.959 34.2834 58.2132 34.3222 58.4469 34.4202C58.6805 34.5182 58.8863 34.6725 59.046 34.8692C59.2056 35.066 59.3142 35.2991 59.3619 35.548C59.7867 37.5323 60.0006 39.556 60 41.5853V41.5853Z" stroke="#19181B" stroke-width="2" stroke-linecap="round" stroke-linejoin="round"/>
</svg>
