<svg width="86" height="81" viewBox="0 0 86 81" fill="none" xmlns="http://www.w3.org/2000/svg">
<path opacity="0.8" d="M63.5 36C72.6127 36 80 28.6127 80 19.5C80 10.3873 72.6127 3 63.5 3C54.3873 3 47 10.3873 47 19.5C47 28.6127 54.3873 36 63.5 36Z" fill="#FFE1E6"/>
<path d="M80 65.6366C80 59.2874 77.4778 53.1984 72.9883 48.7088C68.4987 44.2193 62.4097 41.6971 56.0605 41.6971C49.7114 41.6971 43.6223 44.2193 39.1328 48.7088C34.6433 53.1984 32.1211 59.2874 32.1211 65.6366" stroke="#19181B" stroke-width="2"/>
<path d="M56.0608 34.5152C65.3158 34.5152 72.8184 27.0126 72.8184 17.7576C72.8184 8.50263 65.3158 1 56.0608 1C46.8059 1 39.3032 8.50263 39.3032 17.7576C39.3032 27.0126 46.8059 34.5152 56.0608 34.5152Z" stroke="#19181B" stroke-width="2"/>
<path d="M27.3429 56.6685C22.6338 54.5409 17.2919 54.2836 12.4001 55.9489C7.50831 57.6141 3.43285 61.0773 1 65.6362" stroke="#FF3F56" stroke-width="2"/>
<path opacity="0.8" d="M22.9246 51.5822C30.7913 51.5822 37.1686 45.2049 37.1686 37.3382C37.1686 29.4715 30.7913 23.0942 22.9246 23.0942C15.0579 23.0942 8.68066 29.4715 8.68066 37.3382C8.68066 45.2049 15.0579 51.5822 22.9246 51.5822Z" fill="#FFE1E6"/>
<path d="M18.954 48.7589C26.8208 48.7589 33.198 42.3817 33.198 34.515C33.198 26.6482 26.8208 20.271 18.954 20.271C11.0873 20.271 4.71008 26.6482 4.71008 34.515C4.71008 42.3817 11.0873 48.7589 18.954 48.7589Z" stroke="#FF3F56" stroke-width="2"/>
</svg>
